<svg xmlns="http://www.w3.org/2000/svg" viewBox="0 0 760 520"><defs><linearGradient id="sky" x1="0" y1="0" x2="0" y2="1"><stop offset="0" stop-color="#62b4ea"/><stop offset=".42" stop-color="#f4efe4"/><stop offset=".55" stop-color="#2b8fb7"/><stop offset="1" stop-color="#214b33"/></linearGradient><linearGradient id="gold" x1="0" y1="0" x2="1" y2="1"><stop stop-color="#8c560b"/><stop offset=".25" stop-color="#f3c766"/><stop offset=".5" stop-color="#fff0a6"/><stop offset=".75" stop-color="#c78316"/><stop offset="1" stop-color="#8c560b"/></linearGradient><filter id="s"><feDropShadow dx="0" dy="18" stdDeviation="18" flood-opacity=".3"/></filter></defs><rect width="100%" height="100%" fill="url(#sky)"/><rect y="370" width="100%" height="390" fill="#4f914b"/><rect x="610" y="180" width="450" height="300" fill="#eee1c4"/><path d="M575 180 L835 45 L1100 180 Z" fill="#754422"/><path d="M80 615 C330 555 520 625 760 555 S1060 535 1200 590" fill="none" stroke="#e9e1d1" stroke-width="48"/><g transform="translate(80,374.4) scale(0.8)"><path d="M0 0 C10 -40 6 -82 16 -128" stroke="#6b4328" stroke-width="9" fill="none"/><g stroke="#1d7641" stroke-width="10" stroke-linecap="round"><path d="M16 -128 C-28 -148 -68 -130 -98 -102"/><path d="M16 -128 C-20 -174 -56 -188 -105 -176"/><path d="M16 -128 C54 -172 96 -184 140 -164"/><path d="M16 -128 C68 -142 103 -125 137 -92"/><path d="M16 -128 C22 -180 40 -210 75 -236"/></g></g><g transform="translate(210,392.4) scale(1.02)"><path d="M0 0 C10 -40 6 -82 16 -128" stroke="#6b4328" stroke-width="9" fill="none"/><g stroke="#1d7641" stroke-width="10" stroke-linecap="round"><path d="M16 -128 C-28 -148 -68 -130 -98 -102"/><path d="M16 -128 C-20 -174 -56 -188 -105 -176"/><path d="M16 -128 C54 -172 96 -184 140 -164"/><path d="M16 -128 C68 -142 103 -125 137 -92"/><path d="M16 -128 C22 -180 40 -210 75 -236"/></g></g><g transform="translate(340,410.4) scale(0.8)"><path d="M0 0 C10 -40 6 -82 16 -128" stroke="#6b4328" stroke-width="9" fill="none"/><g stroke="#1d7641" stroke-width="10" stroke-linecap="round"><path d="M16 -128 C-28 -148 -68 -130 -98 -102"/><path d="M16 -128 C-20 -174 -56 -188 -105 -176"/><path d="M16 -128 C54 -172 96 -184 140 -164"/><path d="M16 -128 C68 -142 103 -125 137 -92"/><path d="M16 -128 C22 -180 40 -210 75 -236"/></g></g><g transform="translate(470,374.4) scale(1.02)"><path d="M0 0 C10 -40 6 -82 16 -128" stroke="#6b4328" stroke-width="9" fill="none"/><g stroke="#1d7641" stroke-width="10" stroke-linecap="round"><path d="M16 -128 C-28 -148 -68 -130 -98 -102"/><path d="M16 -128 C-20 -174 -56 -188 -105 -176"/><path d="M16 -128 C54 -172 96 -184 140 -164"/><path d="M16 -128 C68 -142 103 -125 137 -92"/><path d="M16 -128 C22 -180 40 -210 75 -236"/></g></g><g transform="translate(600,392.4) scale(0.8)"><path d="M0 0 C10 -40 6 -82 16 -128" stroke="#6b4328" stroke-width="9" fill="none"/><g stroke="#1d7641" stroke-width="10" stroke-linecap="round"><path d="M16 -128 C-28 -148 -68 -130 -98 -102"/><path d="M16 -128 C-20 -174 -56 -188 -105 -176"/><path d="M16 -128 C54 -172 96 -184 140 -164"/><path d="M16 -128 C68 -142 103 -125 137 -92"/><path d="M16 -128 C22 -180 40 -210 75 -236"/></g></g><g transform="translate(730,410.4) scale(1.02)"><path d="M0 0 C10 -40 6 -82 16 -128" stroke="#6b4328" stroke-width="9" fill="none"/><g stroke="#1d7641" stroke-width="10" stroke-linecap="round"><path d="M16 -128 C-28 -148 -68 -130 -98 -102"/><path d="M16 -128 C-20 -174 -56 -188 -105 -176"/><path d="M16 -128 C54 -172 96 -184 140 -164"/><path d="M16 -128 C68 -142 103 -125 137 -92"/><path d="M16 -128 C22 -180 40 -210 75 -236"/></g></g><g transform="translate(860,374.4) scale(0.8)"><path d="M0 0 C10 -40 6 -82 16 -128" stroke="#6b4328" stroke-width="9" fill="none"/><g stroke="#1d7641" stroke-width="10" stroke-linecap="round"><path d="M16 -128 C-28 -148 -68 -130 -98 -102"/><path d="M16 -128 C-20 -174 -56 -188 -105 -176"/><path d="M16 -128 C54 -172 96 -184 140 -164"/><path d="M16 -128 C68 -142 103 -125 137 -92"/><path d="M16 -128 C22 -180 40 -210 75 -236"/></g></g><g transform="translate(990,392.4) scale(1.02)"><path d="M0 0 C10 -40 6 -82 16 -128" stroke="#6b4328" stroke-width="9" fill="none"/><g stroke="#1d7641" stroke-width="10" stroke-linecap="round"><path d="M16 -128 C-28 -148 -68 -130 -98 -102"/><path d="M16 -128 C-20 -174 -56 -188 -105 -176"/><path d="M16 -128 C54 -172 96 -184 140 -164"/><path d="M16 -128 C68 -142 103 -125 137 -92"/><path d="M16 -128 C22 -180 40 -210 75 -236"/></g></g><g fill="#e76d79"><circle cx="100" cy="610" r="10"/><circle cx="153" cy="632" r="10"/><circle cx="206" cy="654" r="10"/><circle cx="259" cy="676" r="10"/><circle cx="312" cy="610" r="10"/><circle cx="365" cy="632" r="10"/><circle cx="418" cy="654" r="10"/><circle cx="471" cy="676" r="10"/><circle cx="524" cy="610" r="10"/><circle cx="577" cy="632" r="10"/><circle cx="630" cy="654" r="10"/><circle cx="683" cy="676" r="10"/><circle cx="736" cy="610" r="10"/><circle cx="789" cy="632" r="10"/><circle cx="842" cy="654" r="10"/><circle cx="895" cy="676" r="10"/><circle cx="948" cy="610" r="10"/><circle cx="1001" cy="632" r="10"/></g><rect width="100%" height="100%" fill="#001331" opacity=".10"/><text x="42" y="482" font-family="Georgia" font-size="34" fill="#fff" opacity=".86">Bahia Oasis</text></svg>