<svg xmlns="http://www.w3.org/2000/svg" viewBox="0 0 900 700"><defs><linearGradient id="sky" x1="0" y1="0" x2="0" y2="1"><stop offset="0" stop-color="#62b4ea"/><stop offset=".42" stop-color="#f4efe4"/><stop offset=".55" stop-color="#2b8fb7"/><stop offset="1" stop-color="#214b33"/></linearGradient><linearGradient id="gold" x1="0" y1="0" x2="1" y2="1"><stop stop-color="#8c560b"/><stop offset=".25" stop-color="#f3c766"/><stop offset=".5" stop-color="#fff0a6"/><stop offset=".75" stop-color="#c78316"/><stop offset="1" stop-color="#8c560b"/></linearGradient><filter id="s"><feDropShadow dx="0" dy="18" stdDeviation="18" flood-opacity=".3"/></filter></defs><rect width="100%" height="100%" fill="url(#sky)"/><ellipse cx="610" cy="500" rx="470" ry="270" fill="#498b43"/><ellipse cx="610" cy="536" rx="150" ry="92" fill="#663915" opacity=".95"/><g transform="translate(80,504.0) scale(0.8)"><path d="M0 0 C10 -40 6 -82 16 -128" stroke="#6b4328" stroke-width="9" fill="none"/><g stroke="#1d7641" stroke-width="10" stroke-linecap="round"><path d="M16 -128 C-28 -148 -68 -130 -98 -102"/><path d="M16 -128 C-20 -174 -56 -188 -105 -176"/><path d="M16 -128 C54 -172 96 -184 140 -164"/><path d="M16 -128 C68 -142 103 -125 137 -92"/><path d="M16 -128 C22 -180 40 -210 75 -236"/></g></g><g transform="translate(210,522.0) scale(1.02)"><path d="M0 0 C10 -40 6 -82 16 -128" stroke="#6b4328" stroke-width="9" fill="none"/><g stroke="#1d7641" stroke-width="10" stroke-linecap="round"><path d="M16 -128 C-28 -148 -68 -130 -98 -102"/><path d="M16 -128 C-20 -174 -56 -188 -105 -176"/><path d="M16 -128 C54 -172 96 -184 140 -164"/><path d="M16 -128 C68 -142 103 -125 137 -92"/><path d="M16 -128 C22 -180 40 -210 75 -236"/></g></g><g transform="translate(340,540.0) scale(0.8)"><path d="M0 0 C10 -40 6 -82 16 -128" stroke="#6b4328" stroke-width="9" fill="none"/><g stroke="#1d7641" stroke-width="10" stroke-linecap="round"><path d="M16 -128 C-28 -148 -68 -130 -98 -102"/><path d="M16 -128 C-20 -174 -56 -188 -105 -176"/><path d="M16 -128 C54 -172 96 -184 140 -164"/><path d="M16 -128 C68 -142 103 -125 137 -92"/><path d="M16 -128 C22 -180 40 -210 75 -236"/></g></g><g transform="translate(470,504.0) scale(1.02)"><path d="M0 0 C10 -40 6 -82 16 -128" stroke="#6b4328" stroke-width="9" fill="none"/><g stroke="#1d7641" stroke-width="10" stroke-linecap="round"><path d="M16 -128 C-28 -148 -68 -130 -98 -102"/><path d="M16 -128 C-20 -174 -56 -188 -105 -176"/><path d="M16 -128 C54 -172 96 -184 140 -164"/><path d="M16 -128 C68 -142 103 -125 137 -92"/><path d="M16 -128 C22 -180 40 -210 75 -236"/></g></g><g transform="translate(600,522.0) scale(0.8)"><path d="M0 0 C10 -40 6 -82 16 -128" stroke="#6b4328" stroke-width="9" fill="none"/><g stroke="#1d7641" stroke-width="10" stroke-linecap="round"><path d="M16 -128 C-28 -148 -68 -130 -98 -102"/><path d="M16 -128 C-20 -174 -56 -188 -105 -176"/><path d="M16 -128 C54 -172 96 -184 140 -164"/><path d="M16 -128 C68 -142 103 -125 137 -92"/><path d="M16 -128 C22 -180 40 -210 75 -236"/></g></g><g transform="translate(730,540.0) scale(1.02)"><path d="M0 0 C10 -40 6 -82 16 -128" stroke="#6b4328" stroke-width="9" fill="none"/><g stroke="#1d7641" stroke-width="10" stroke-linecap="round"><path d="M16 -128 C-28 -148 -68 -130 -98 -102"/><path d="M16 -128 C-20 -174 -56 -188 -105 -176"/><path d="M16 -128 C54 -172 96 -184 140 -164"/><path d="M16 -128 C68 -142 103 -125 137 -92"/><path d="M16 -128 C22 -180 40 -210 75 -236"/></g></g><g transform="translate(860,504.0) scale(0.8)"><path d="M0 0 C10 -40 6 -82 16 -128" stroke="#6b4328" stroke-width="9" fill="none"/><g stroke="#1d7641" stroke-width="10" stroke-linecap="round"><path d="M16 -128 C-28 -148 -68 -130 -98 -102"/><path d="M16 -128 C-20 -174 -56 -188 -105 -176"/><path d="M16 -128 C54 -172 96 -184 140 -164"/><path d="M16 -128 C68 -142 103 -125 137 -92"/><path d="M16 -128 C22 -180 40 -210 75 -236"/></g></g><g transform="translate(990,522.0) scale(1.02)"><path d="M0 0 C10 -40 6 -82 16 -128" stroke="#6b4328" stroke-width="9" fill="none"/><g stroke="#1d7641" stroke-width="10" stroke-linecap="round"><path d="M16 -128 C-28 -148 -68 -130 -98 -102"/><path d="M16 -128 C-20 -174 -56 -188 -105 -176"/><path d="M16 -128 C54 -172 96 -184 140 -164"/><path d="M16 -128 C68 -142 103 -125 137 -92"/><path d="M16 -128 C22 -180 40 -210 75 -236"/></g></g><g fill="#efe0c2" stroke="#7a4b2a" stroke-width="4"><rect x="120" y="315" width="90" height="56"/><path d="M110 315 l55 -35 l55 35z" fill="#8e5b38"/><rect x="211" y="362" width="90" height="56"/><path d="M201 362 l55 -35 l55 35z" fill="#8e5b38"/><rect x="302" y="409" width="90" height="56"/><path d="M292 409 l55 -35 l55 35z" fill="#8e5b38"/><rect x="393" y="456" width="90" height="56"/><path d="M383 456 l55 -35 l55 35z" fill="#8e5b38"/><rect x="484" y="503" width="90" height="56"/><path d="M474 503 l55 -35 l55 35z" fill="#8e5b38"/><rect x="575" y="550" width="90" height="56"/><path d="M565 550 l55 -35 l55 35z" fill="#8e5b38"/><rect x="666" y="597" width="90" height="56"/><path d="M656 597 l55 -35 l55 35z" fill="#8e5b38"/><rect x="757" y="344" width="90" height="56"/><path d="M747 344 l55 -35 l55 35z" fill="#8e5b38"/><rect x="848" y="391" width="90" height="56"/><path d="M838 391 l55 -35 l55 35z" fill="#8e5b38"/><rect x="939" y="438" width="90" height="56"/><path d="M929 438 l55 -35 l55 35z" fill="#8e5b38"/><rect x="130" y="485" width="90" height="56"/><path d="M120 485 l55 -35 l55 35z" fill="#8e5b38"/><rect x="221" y="532" width="90" height="56"/><path d="M211 532 l55 -35 l55 35z" fill="#8e5b38"/><rect x="312" y="579" width="90" height="56"/><path d="M302 579 l55 -35 l55 35z" fill="#8e5b38"/><rect x="403" y="326" width="90" height="56"/><path d="M393 326 l55 -35 l55 35z" fill="#8e5b38"/></g><rect width="100%" height="100%" fill="#001331" opacity=".10"/><text x="42" y="662" font-family="Georgia" font-size="34" fill="#fff" opacity=".86">Costa Verde masterplan</text></svg>