<svg xmlns="http://www.w3.org/2000/svg" viewBox="0 0 900 620"><defs><linearGradient id="sky" x1="0" y1="0" x2="0" y2="1"><stop offset="0" stop-color="#62b4ea"/><stop offset=".42" stop-color="#f4efe4"/><stop offset=".55" stop-color="#2b8fb7"/><stop offset="1" stop-color="#214b33"/></linearGradient><linearGradient id="gold" x1="0" y1="0" x2="1" y2="1"><stop stop-color="#8c560b"/><stop offset=".25" stop-color="#f3c766"/><stop offset=".5" stop-color="#fff0a6"/><stop offset=".75" stop-color="#c78316"/><stop offset="1" stop-color="#8c560b"/></linearGradient><filter id="s"><feDropShadow dx="0" dy="18" stdDeviation="18" flood-opacity=".3"/></filter></defs><rect width="100%" height="100%" fill="url(#sky)"/><rect y="330" width="100%" height="430" fill="#b97955"/><ellipse cx="600" cy="520" rx="330" ry="165" fill="#39c4e8" stroke="#f8e0a8" stroke-width="14"/><rect x="70" y="210" width="320" height="220" fill="#efe2c7"/><path d="M40 210 L230 70 L420 210 Z" fill="#754422"/><rect x="800" y="240" width="320" height="230" fill="#efe2c7"/><path d="M770 240 L960 90 L1150 240 Z" fill="#754422"/><g transform="translate(80,446.4) scale(0.8)"><path d="M0 0 C10 -40 6 -82 16 -128" stroke="#6b4328" stroke-width="9" fill="none"/><g stroke="#1d7641" stroke-width="10" stroke-linecap="round"><path d="M16 -128 C-28 -148 -68 -130 -98 -102"/><path d="M16 -128 C-20 -174 -56 -188 -105 -176"/><path d="M16 -128 C54 -172 96 -184 140 -164"/><path d="M16 -128 C68 -142 103 -125 137 -92"/><path d="M16 -128 C22 -180 40 -210 75 -236"/></g></g><g transform="translate(210,464.4) scale(1.02)"><path d="M0 0 C10 -40 6 -82 16 -128" stroke="#6b4328" stroke-width="9" fill="none"/><g stroke="#1d7641" stroke-width="10" stroke-linecap="round"><path d="M16 -128 C-28 -148 -68 -130 -98 -102"/><path d="M16 -128 C-20 -174 -56 -188 -105 -176"/><path d="M16 -128 C54 -172 96 -184 140 -164"/><path d="M16 -128 C68 -142 103 -125 137 -92"/><path d="M16 -128 C22 -180 40 -210 75 -236"/></g></g><g transform="translate(340,482.4) scale(0.8)"><path d="M0 0 C10 -40 6 -82 16 -128" stroke="#6b4328" stroke-width="9" fill="none"/><g stroke="#1d7641" stroke-width="10" stroke-linecap="round"><path d="M16 -128 C-28 -148 -68 -130 -98 -102"/><path d="M16 -128 C-20 -174 -56 -188 -105 -176"/><path d="M16 -128 C54 -172 96 -184 140 -164"/><path d="M16 -128 C68 -142 103 -125 137 -92"/><path d="M16 -128 C22 -180 40 -210 75 -236"/></g></g><g transform="translate(470,446.4) scale(1.02)"><path d="M0 0 C10 -40 6 -82 16 -128" stroke="#6b4328" stroke-width="9" fill="none"/><g stroke="#1d7641" stroke-width="10" stroke-linecap="round"><path d="M16 -128 C-28 -148 -68 -130 -98 -102"/><path d="M16 -128 C-20 -174 -56 -188 -105 -176"/><path d="M16 -128 C54 -172 96 -184 140 -164"/><path d="M16 -128 C68 -142 103 -125 137 -92"/><path d="M16 -128 C22 -180 40 -210 75 -236"/></g></g><g transform="translate(600,464.4) scale(0.8)"><path d="M0 0 C10 -40 6 -82 16 -128" stroke="#6b4328" stroke-width="9" fill="none"/><g stroke="#1d7641" stroke-width="10" stroke-linecap="round"><path d="M16 -128 C-28 -148 -68 -130 -98 -102"/><path d="M16 -128 C-20 -174 -56 -188 -105 -176"/><path d="M16 -128 C54 -172 96 -184 140 -164"/><path d="M16 -128 C68 -142 103 -125 137 -92"/><path d="M16 -128 C22 -180 40 -210 75 -236"/></g></g><g transform="translate(730,482.4) scale(1.02)"><path d="M0 0 C10 -40 6 -82 16 -128" stroke="#6b4328" stroke-width="9" fill="none"/><g stroke="#1d7641" stroke-width="10" stroke-linecap="round"><path d="M16 -128 C-28 -148 -68 -130 -98 -102"/><path d="M16 -128 C-20 -174 -56 -188 -105 -176"/><path d="M16 -128 C54 -172 96 -184 140 -164"/><path d="M16 -128 C68 -142 103 -125 137 -92"/><path d="M16 -128 C22 -180 40 -210 75 -236"/></g></g><g transform="translate(860,446.4) scale(0.8)"><path d="M0 0 C10 -40 6 -82 16 -128" stroke="#6b4328" stroke-width="9" fill="none"/><g stroke="#1d7641" stroke-width="10" stroke-linecap="round"><path d="M16 -128 C-28 -148 -68 -130 -98 -102"/><path d="M16 -128 C-20 -174 -56 -188 -105 -176"/><path d="M16 -128 C54 -172 96 -184 140 -164"/><path d="M16 -128 C68 -142 103 -125 137 -92"/><path d="M16 -128 C22 -180 40 -210 75 -236"/></g></g><g transform="translate(990,464.4) scale(1.02)"><path d="M0 0 C10 -40 6 -82 16 -128" stroke="#6b4328" stroke-width="9" fill="none"/><g stroke="#1d7641" stroke-width="10" stroke-linecap="round"><path d="M16 -128 C-28 -148 -68 -130 -98 -102"/><path d="M16 -128 C-20 -174 -56 -188 -105 -176"/><path d="M16 -128 C54 -172 96 -184 140 -164"/><path d="M16 -128 C68 -142 103 -125 137 -92"/><path d="M16 -128 C22 -180 40 -210 75 -236"/></g></g><rect width="100%" height="100%" fill="#001331" opacity=".10"/><text x="42" y="582" font-family="Georgia" font-size="34" fill="#fff" opacity=".86">Golden Mundaí — piscina</text></svg>