<svg xmlns="http://www.w3.org/2000/svg" viewBox="0 0 900 520"><defs><linearGradient id="sky" x1="0" y1="0" x2="0" y2="1"><stop offset="0" stop-color="#62b4ea"/><stop offset=".42" stop-color="#f4efe4"/><stop offset=".55" stop-color="#2b8fb7"/><stop offset="1" stop-color="#214b33"/></linearGradient><linearGradient id="gold" x1="0" y1="0" x2="1" y2="1"><stop stop-color="#8c560b"/><stop offset=".25" stop-color="#f3c766"/><stop offset=".5" stop-color="#fff0a6"/><stop offset=".75" stop-color="#c78316"/><stop offset="1" stop-color="#8c560b"/></linearGradient><filter id="s"><feDropShadow dx="0" dy="18" stdDeviation="18" flood-opacity=".3"/></filter></defs><rect width="100%" height="100%" fill="url(#sky)"/><path d="M0 520 C260 450 350 520 560 470 C790 418 980 422 1200 505 L1200 760 L0 760Z" fill="#1b8eb9"/><path d="M0 565 C260 515 460 590 665 540 C900 488 1080 520 1200 560 L1200 760 L0 760Z" fill="#e7d1a0"/><rect x="570" y="360" width="38" height="90" fill="#24455f"/><g fill="#f2c669"><rect x="578" y="370" width="8" height="8"/></g><rect x="625" y="315" width="38" height="135" fill="#24455f"/><g fill="#f2c669"><rect x="633" y="325" width="8" height="8"/><rect x="633" y="349" width="8" height="8"/></g><rect x="680" y="270" width="38" height="180" fill="#24455f"/><g fill="#f2c669"><rect x="688" y="280" width="8" height="8"/><rect x="688" y="304" width="8" height="8"/><rect x="688" y="328" width="8" height="8"/></g><rect x="735" y="225" width="38" height="225" fill="#24455f"/><g fill="#f2c669"><rect x="743" y="235" width="8" height="8"/><rect x="743" y="259" width="8" height="8"/><rect x="743" y="283" width="8" height="8"/><rect x="743" y="307" width="8" height="8"/></g><rect x="790" y="180" width="38" height="270" fill="#24455f"/><g fill="#f2c669"><rect x="798" y="190" width="8" height="8"/><rect x="798" y="214" width="8" height="8"/><rect x="798" y="238" width="8" height="8"/><rect x="798" y="262" width="8" height="8"/><rect x="798" y="286" width="8" height="8"/></g><rect x="845" y="360" width="38" height="90" fill="#24455f"/><g fill="#f2c669"><rect x="853" y="370" width="8" height="8"/></g><rect x="900" y="315" width="38" height="135" fill="#24455f"/><g fill="#f2c669"><rect x="908" y="325" width="8" height="8"/><rect x="908" y="349" width="8" height="8"/></g><rect x="955" y="270" width="38" height="180" fill="#24455f"/><g fill="#f2c669"><rect x="963" y="280" width="8" height="8"/><rect x="963" y="304" width="8" height="8"/><rect x="963" y="328" width="8" height="8"/></g><rect x="1010" y="225" width="38" height="225" fill="#24455f"/><g fill="#f2c669"><rect x="1018" y="235" width="8" height="8"/><rect x="1018" y="259" width="8" height="8"/><rect x="1018" y="283" width="8" height="8"/><rect x="1018" y="307" width="8" height="8"/></g><rect x="1065" y="180" width="38" height="270" fill="#24455f"/><g fill="#f2c669"><rect x="1073" y="190" width="8" height="8"/><rect x="1073" y="214" width="8" height="8"/><rect x="1073" y="238" width="8" height="8"/><rect x="1073" y="262" width="8" height="8"/><rect x="1073" y="286" width="8" height="8"/></g><g transform="translate(80,374.4) scale(0.8)"><path d="M0 0 C10 -40 6 -82 16 -128" stroke="#6b4328" stroke-width="9" fill="none"/><g stroke="#1d7641" stroke-width="10" stroke-linecap="round"><path d="M16 -128 C-28 -148 -68 -130 -98 -102"/><path d="M16 -128 C-20 -174 -56 -188 -105 -176"/><path d="M16 -128 C54 -172 96 -184 140 -164"/><path d="M16 -128 C68 -142 103 -125 137 -92"/><path d="M16 -128 C22 -180 40 -210 75 -236"/></g></g><g transform="translate(210,392.4) scale(1.02)"><path d="M0 0 C10 -40 6 -82 16 -128" stroke="#6b4328" stroke-width="9" fill="none"/><g stroke="#1d7641" stroke-width="10" stroke-linecap="round"><path d="M16 -128 C-28 -148 -68 -130 -98 -102"/><path d="M16 -128 C-20 -174 -56 -188 -105 -176"/><path d="M16 -128 C54 -172 96 -184 140 -164"/><path d="M16 -128 C68 -142 103 -125 137 -92"/><path d="M16 -128 C22 -180 40 -210 75 -236"/></g></g><g transform="translate(340,410.4) scale(0.8)"><path d="M0 0 C10 -40 6 -82 16 -128" stroke="#6b4328" stroke-width="9" fill="none"/><g stroke="#1d7641" stroke-width="10" stroke-linecap="round"><path d="M16 -128 C-28 -148 -68 -130 -98 -102"/><path d="M16 -128 C-20 -174 -56 -188 -105 -176"/><path d="M16 -128 C54 -172 96 -184 140 -164"/><path d="M16 -128 C68 -142 103 -125 137 -92"/><path d="M16 -128 C22 -180 40 -210 75 -236"/></g></g><g transform="translate(470,374.4) scale(1.02)"><path d="M0 0 C10 -40 6 -82 16 -128" stroke="#6b4328" stroke-width="9" fill="none"/><g stroke="#1d7641" stroke-width="10" stroke-linecap="round"><path d="M16 -128 C-28 -148 -68 -130 -98 -102"/><path d="M16 -128 C-20 -174 -56 -188 -105 -176"/><path d="M16 -128 C54 -172 96 -184 140 -164"/><path d="M16 -128 C68 -142 103 -125 137 -92"/><path d="M16 -128 C22 -180 40 -210 75 -236"/></g></g><g transform="translate(600,392.4) scale(0.8)"><path d="M0 0 C10 -40 6 -82 16 -128" stroke="#6b4328" stroke-width="9" fill="none"/><g stroke="#1d7641" stroke-width="10" stroke-linecap="round"><path d="M16 -128 C-28 -148 -68 -130 -98 -102"/><path d="M16 -128 C-20 -174 -56 -188 -105 -176"/><path d="M16 -128 C54 -172 96 -184 140 -164"/><path d="M16 -128 C68 -142 103 -125 137 -92"/><path d="M16 -128 C22 -180 40 -210 75 -236"/></g></g><g transform="translate(730,410.4) scale(1.02)"><path d="M0 0 C10 -40 6 -82 16 -128" stroke="#6b4328" stroke-width="9" fill="none"/><g stroke="#1d7641" stroke-width="10" stroke-linecap="round"><path d="M16 -128 C-28 -148 -68 -130 -98 -102"/><path d="M16 -128 C-20 -174 -56 -188 -105 -176"/><path d="M16 -128 C54 -172 96 -184 140 -164"/><path d="M16 -128 C68 -142 103 -125 137 -92"/><path d="M16 -128 C22 -180 40 -210 75 -236"/></g></g><g transform="translate(860,374.4) scale(0.8)"><path d="M0 0 C10 -40 6 -82 16 -128" stroke="#6b4328" stroke-width="9" fill="none"/><g stroke="#1d7641" stroke-width="10" stroke-linecap="round"><path d="M16 -128 C-28 -148 -68 -130 -98 -102"/><path d="M16 -128 C-20 -174 -56 -188 -105 -176"/><path d="M16 -128 C54 -172 96 -184 140 -164"/><path d="M16 -128 C68 -142 103 -125 137 -92"/><path d="M16 -128 C22 -180 40 -210 75 -236"/></g></g><g transform="translate(990,392.4) scale(1.02)"><path d="M0 0 C10 -40 6 -82 16 -128" stroke="#6b4328" stroke-width="9" fill="none"/><g stroke="#1d7641" stroke-width="10" stroke-linecap="round"><path d="M16 -128 C-28 -148 -68 -130 -98 -102"/><path d="M16 -128 C-20 -174 -56 -188 -105 -176"/><path d="M16 -128 C54 -172 96 -184 140 -164"/><path d="M16 -128 C68 -142 103 -125 137 -92"/><path d="M16 -128 C22 -180 40 -210 75 -236"/></g></g><rect width="100%" height="100%" fill="#001331" opacity=".10"/><text x="42" y="482" font-family="Georgia" font-size="34" fill="#fff" opacity=".86">Flórida — EUA</text></svg>