<svg xmlns="http://www.w3.org/2000/svg" viewBox="0 0 760 520"><defs><linearGradient id="sky" x1="0" y1="0" x2="0" y2="1"><stop offset="0" stop-color="#62b4ea"/><stop offset=".42" stop-color="#f4efe4"/><stop offset=".55" stop-color="#2b8fb7"/><stop offset="1" stop-color="#214b33"/></linearGradient><linearGradient id="gold" x1="0" y1="0" x2="1" y2="1"><stop stop-color="#8c560b"/><stop offset=".25" stop-color="#f3c766"/><stop offset=".5" stop-color="#fff0a6"/><stop offset=".75" stop-color="#c78316"/><stop offset="1" stop-color="#8c560b"/></linearGradient><filter id="s"><feDropShadow dx="0" dy="18" stdDeviation="18" flood-opacity=".3"/></filter></defs><rect width="100%" height="100%" fill="url(#sky)"/><path d="M0 270.40000000000003 C260 197.6 470 286.0 710 228.8 S1030 197.6 760 260.0 L760 520 L0 520 Z" fill="#e7d1a0"/><path d="M0 239.20000000000002 C280 208.0 480 260.0 720 218.4 C910 187.2 1060 202.8 760 228.8 L760 301.59999999999997 L0 301.59999999999997Z" fill="#1e85ac" opacity=".88"/><rect x="650" y="285" width="470" height="270" rx="12" fill="#17202e" opacity=".92"/><path d="M610 285 L880 120 L1160 285 Z" fill="#2a251e"/><g fill="#f7bf55" opacity=".85"><rect x="700" y="330" width="64" height="150"/><rect x="800" y="330" width="64" height="150"/><rect x="900" y="330" width="64" height="150"/><rect x="1000" y="330" width="64" height="150"/></g><ellipse cx="435" cy="610" rx="230" ry="96" fill="#0d7da5" opacity=".9" stroke="url(#gold)" stroke-width="8"/><g transform="translate(80,374.4) scale(0.8)"><path d="M0 0 C10 -40 6 -82 16 -128" stroke="#6b4328" stroke-width="9" fill="none"/><g stroke="#1d7641" stroke-width="10" stroke-linecap="round"><path d="M16 -128 C-28 -148 -68 -130 -98 -102"/><path d="M16 -128 C-20 -174 -56 -188 -105 -176"/><path d="M16 -128 C54 -172 96 -184 140 -164"/><path d="M16 -128 C68 -142 103 -125 137 -92"/><path d="M16 -128 C22 -180 40 -210 75 -236"/></g></g><g transform="translate(210,392.4) scale(1.02)"><path d="M0 0 C10 -40 6 -82 16 -128" stroke="#6b4328" stroke-width="9" fill="none"/><g stroke="#1d7641" stroke-width="10" stroke-linecap="round"><path d="M16 -128 C-28 -148 -68 -130 -98 -102"/><path d="M16 -128 C-20 -174 -56 -188 -105 -176"/><path d="M16 -128 C54 -172 96 -184 140 -164"/><path d="M16 -128 C68 -142 103 -125 137 -92"/><path d="M16 -128 C22 -180 40 -210 75 -236"/></g></g><g transform="translate(340,410.4) scale(0.8)"><path d="M0 0 C10 -40 6 -82 16 -128" stroke="#6b4328" stroke-width="9" fill="none"/><g stroke="#1d7641" stroke-width="10" stroke-linecap="round"><path d="M16 -128 C-28 -148 -68 -130 -98 -102"/><path d="M16 -128 C-20 -174 -56 -188 -105 -176"/><path d="M16 -128 C54 -172 96 -184 140 -164"/><path d="M16 -128 C68 -142 103 -125 137 -92"/><path d="M16 -128 C22 -180 40 -210 75 -236"/></g></g><g transform="translate(470,374.4) scale(1.02)"><path d="M0 0 C10 -40 6 -82 16 -128" stroke="#6b4328" stroke-width="9" fill="none"/><g stroke="#1d7641" stroke-width="10" stroke-linecap="round"><path d="M16 -128 C-28 -148 -68 -130 -98 -102"/><path d="M16 -128 C-20 -174 -56 -188 -105 -176"/><path d="M16 -128 C54 -172 96 -184 140 -164"/><path d="M16 -128 C68 -142 103 -125 137 -92"/><path d="M16 -128 C22 -180 40 -210 75 -236"/></g></g><g transform="translate(600,392.4) scale(0.8)"><path d="M0 0 C10 -40 6 -82 16 -128" stroke="#6b4328" stroke-width="9" fill="none"/><g stroke="#1d7641" stroke-width="10" stroke-linecap="round"><path d="M16 -128 C-28 -148 -68 -130 -98 -102"/><path d="M16 -128 C-20 -174 -56 -188 -105 -176"/><path d="M16 -128 C54 -172 96 -184 140 -164"/><path d="M16 -128 C68 -142 103 -125 137 -92"/><path d="M16 -128 C22 -180 40 -210 75 -236"/></g></g><g transform="translate(730,410.4) scale(1.02)"><path d="M0 0 C10 -40 6 -82 16 -128" stroke="#6b4328" stroke-width="9" fill="none"/><g stroke="#1d7641" stroke-width="10" stroke-linecap="round"><path d="M16 -128 C-28 -148 -68 -130 -98 -102"/><path d="M16 -128 C-20 -174 -56 -188 -105 -176"/><path d="M16 -128 C54 -172 96 -184 140 -164"/><path d="M16 -128 C68 -142 103 -125 137 -92"/><path d="M16 -128 C22 -180 40 -210 75 -236"/></g></g><g transform="translate(860,374.4) scale(0.8)"><path d="M0 0 C10 -40 6 -82 16 -128" stroke="#6b4328" stroke-width="9" fill="none"/><g stroke="#1d7641" stroke-width="10" stroke-linecap="round"><path d="M16 -128 C-28 -148 -68 -130 -98 -102"/><path d="M16 -128 C-20 -174 -56 -188 -105 -176"/><path d="M16 -128 C54 -172 96 -184 140 -164"/><path d="M16 -128 C68 -142 103 -125 137 -92"/><path d="M16 -128 C22 -180 40 -210 75 -236"/></g></g><g transform="translate(990,392.4) scale(1.02)"><path d="M0 0 C10 -40 6 -82 16 -128" stroke="#6b4328" stroke-width="9" fill="none"/><g stroke="#1d7641" stroke-width="10" stroke-linecap="round"><path d="M16 -128 C-28 -148 -68 -130 -98 -102"/><path d="M16 -128 C-20 -174 -56 -188 -105 -176"/><path d="M16 -128 C54 -172 96 -184 140 -164"/><path d="M16 -128 C68 -142 103 -125 137 -92"/><path d="M16 -128 C22 -180 40 -210 75 -236"/></g></g><rect width="100%" height="100%" fill="#001331" opacity=".10"/><text x="42" y="482" font-family="Georgia" font-size="34" fill="#fff" opacity=".86">Villa Praia do Espelho</text></svg>