<svg xmlns="http://www.w3.org/2000/svg" viewBox="0 0 1200 1200" role="img" aria-labelledby="title desc">
  <title id="title">Carlos Antônio Imóveis</title>
  <desc id="desc">Logomarca circular azul e dourada da Carlos Antônio Imóveis.</desc>
  <defs>
    <radialGradient id="blue" cx="52%" cy="45%" r="58%">
      <stop offset="0" stop-color="#095ce6"/>
      <stop offset="0.45" stop-color="#0732a5"/>
      <stop offset="1" stop-color="#001142"/>
    </radialGradient>
    <linearGradient id="gold" x1="0" y1="0" x2="1" y2="1">
      <stop offset="0" stop-color="#8b5209"/>
      <stop offset="0.16" stop-color="#f2b94e"/>
      <stop offset="0.34" stop-color="#fff2a5"/>
      <stop offset="0.5" stop-color="#c47a08"/>
      <stop offset="0.72" stop-color="#ffe083"/>
      <stop offset="1" stop-color="#9b5b07"/>
    </linearGradient>
    <filter id="shadow" x="-20%" y="-20%" width="140%" height="140%">
      <feDropShadow dx="0" dy="18" stdDeviation="12" flood-color="#000" flood-opacity=".45"/>
    </filter>
  </defs>
  <circle cx="600" cy="600" r="560" fill="url(#gold)"/>
  <circle cx="600" cy="600" r="520" fill="url(#blue)" stroke="#060b20" stroke-width="10"/>
  <circle cx="600" cy="600" r="490" fill="none" stroke="url(#gold)" stroke-width="16" opacity=".7"/>
  <text x="600" y="310" text-anchor="middle" font-size="175" font-family="Georgia, 'Times New Roman', serif" font-weight="700" fill="url(#gold)" stroke="#5f3300" stroke-width="4" filter="url(#shadow)">CARLOS</text>
  <path d="M210 660 C330 585 390 495 510 380 L648 507 L648 620 L836 620" fill="none" stroke="url(#gold)" stroke-width="55" stroke-linecap="round" stroke-linejoin="round" filter="url(#shadow)"/>
  <path d="M785 555 C865 500 955 490 1040 420 C996 500 960 575 900 642 C872 590 832 560 785 555Z" fill="url(#gold)" filter="url(#shadow)"/>
  <text x="600" y="790" text-anchor="middle" font-size="126" font-family="Georgia, 'Times New Roman', serif" font-weight="700" fill="url(#gold)" stroke="#5f3300" stroke-width="3" filter="url(#shadow)">ANTÔNIO</text>
  <text x="600" y="1010" text-anchor="middle" font-size="125" font-family="Georgia, 'Times New Roman', serif" font-weight="700" fill="url(#gold)" stroke="#5f3300" stroke-width="3" filter="url(#shadow)">IMÓVEIS</text>
</svg>
